<?xml version="1.0" standalone="no"?>
<!DOCTYPE svg PUBLIC "-//W3C//DTD SVG 20010904//EN"
 "http://www.w3.org/TR/2001/REC-SVG-20010904/DTD/svg10.dtd">
<svg version="1.0" xmlns="http://www.w3.org/2000/svg"
 width="64.000000pt" height="64.000000pt" viewBox="0 0 64.000000 64.000000"
 preserveAspectRatio="xMidYMid meet">
<metadata>
Created by potrace 1.16, written by Peter Selinger 2001-2019
</metadata>
<g transform="translate(0.000000,64.000000) scale(0.100000,-0.100000)"
fill="#000000" stroke="none">
<path d="M242 604 c-49 -25 -111 -100 -117 -143 -3 -20 -20 -66 -37 -103 -35
-75 -33 -98 12 -98 29 0 30 -1 30 -49 0 -58 10 -69 70 -73 l45 -3 3 -57 c4
-82 22 -72 22 12 l0 70 -44 0 c-57 0 -76 19 -76 76 0 39 -2 44 -23 44 -37 0
-38 9 -7 69 17 31 30 66 30 79 0 26 24 77 49 106 28 32 88 56 141 56 115 0
192 -81 192 -200 0 -66 -19 -114 -62 -155 -29 -28 -30 -32 -30 -122 0 -55 4
-93 10 -93 6 0 10 31 10 74 0 72 1 75 40 122 51 62 63 102 59 196 -5 83 -25
121 -96 175 -31 24 -47 28 -112 31 -56 2 -85 -2 -109 -14z"/>
<path d="M340 545 c0 -9 9 -15 24 -15 26 0 40 -14 41 -40 0 -8 7 -15 15 -15
24 -1 40 -15 40 -35 0 -10 -6 -21 -12 -24 -10 -5 -10 -7 0 -12 29 -13 8 -58
-28 -59 -8 0 -15 -7 -15 -15 -1 -24 -15 -40 -35 -40 -10 0 -21 6 -24 13 -5 10
-7 10 -12 0 -13 -30 -58 -9 -59 27 0 8 -7 15 -15 15 -24 1 -40 15 -40 35 0 10
6 21 13 24 10 5 10 7 0 12 -20 9 -15 42 7 56 11 7 20 23 20 35 0 18 -6 23 -26
23 -17 0 -24 -4 -21 -13 3 -7 -1 -21 -9 -32 -21 -28 -18 -124 5 -159 31 -46
69 -66 131 -66 62 0 100 20 131 66 26 39 26 129 0 168 -10 15 -32 37 -47 47
-35 23 -84 25 -84 4z"/>
</g>
</svg>
